<?xml version="1.0" encoding="iso-8859-1"?>
<!-- Generator: Adobe Illustrator 19.0.0, SVG Export Plug-In . SVG Version: 6.00 Build 0)  -->
<svg xmlns="http://www.w3.org/2000/svg" xmlns:xlink="http://www.w3.org/1999/xlink" version="1.1" id="Layer_1" x="0px" y="0px" viewBox="0 0 512 512" style="enable-background:new 0 0 512 512;" xml:space="preserve" width="512" height="512">
<linearGradient id="SVGID_1_" gradientUnits="userSpaceOnUse" x1="235.0403" y1="-9.458745e-010" x2="235.0403" y2="511.9326">
	<stop offset="0" style="stop-color:#2AF598"/>
	<stop offset="1" style="stop-color:#009EFD"/>
</linearGradient>
<path style="fill:url(#SVGID_1_);" d="M452.507,409.506l-57.588-57.588c11.01-41.086-0.527-85.381-31.071-115.925  c-33.737-33.736-84.25-44.286-128.687-26.873l-28.458,11.15l61.896,61.896c3.777,3.777,5.857,8.799,5.857,14.142  c0,5.342-2.081,10.364-5.858,14.142c-3.778,3.778-8.8,5.858-14.142,5.858s-10.365-2.08-14.142-5.858l-61.895-61.895l-11.151,28.458  c-17.412,44.438-6.863,94.949,26.874,128.688c22.939,22.938,53.628,35.157,84.895,35.155c10.365,0,20.799-1.344,31.028-4.085  l57.589,57.589c11.333,11.332,26.4,17.573,42.426,17.573s31.094-6.241,42.426-17.573c11.333-11.333,17.574-26.4,17.574-42.427  C470.081,435.905,463.839,420.838,452.507,409.506z M424.223,466.074c-3.778,3.778-8.8,5.858-14.142,5.858  s-10.365-2.08-14.142-5.858l-75.519-75.518l-12.185,4.774c-29.632,11.608-63.314,4.578-85.809-17.915  c-14.059-14.06-22.077-32.486-23.28-51.565l12.883,12.884c11.333,11.332,26.4,17.573,42.426,17.573s31.094-6.241,42.426-17.573  c11.333-11.333,17.574-26.4,17.574-42.427c0-16.027-6.241-31.095-17.574-42.427l-12.883-12.883  c19.077,1.203,37.507,9.223,51.565,23.279c22.494,22.495,29.526,56.177,17.915,85.81l-4.774,12.186l75.519,75.519h0  c3.777,3.777,5.857,8.799,5.857,14.142C430.081,457.274,428,462.297,424.223,466.074z M214.688,467.353  c18.051,7.92,37.409,12.425,57.066,13.322c-27.71,17.682-48.294,26.939-49.623,27.53L214,511.823l-8.131-3.618  c-2.089-0.93-51.727-23.253-101.857-66.063c-29.813-25.46-53.656-52.958-70.863-81.729C11.153,323.637,0,284.777,0,244.914V124.247  c0-29.085,20.842-53.931,49.559-59.078c48.482-8.688,93.135-35.167,115.437-50.178C179.563,5.185,196.509,0,214,0  s34.437,5.185,49.006,14.992c22.3,15.01,66.953,41.488,115.435,50.177h0C407.158,70.316,428,95.162,428,124.247v120.667  c0,5.389-0.211,10.758-0.618,16.108c-7.897-19.599-19.728-37.79-35.25-53.313c-1.356-1.356-2.735-2.682-4.132-3.982v-79.48  c0-9.692-6.988-17.979-16.615-19.705c-55.696-9.981-105.804-39.6-130.715-56.367C232.725,42.826,223.503,40,214,40  s-18.725,2.826-26.668,8.174c-24.913,16.769-75.021,46.387-130.717,56.368C46.988,106.268,40,114.555,40,124.247v120.667  c0,59.429,30.023,115.335,89.236,166.167c34.417,29.545,69.359,48.803,84.764,56.623  C214.221,467.592,214.459,467.47,214.688,467.353z"/>















</svg>
