<?xml version="1.0" encoding="utf-8"?>
<!-- Generator: Adobe Illustrator 19.0.0, SVG Export Plug-In . SVG Version: 6.00 Build 0)  -->
<svg xmlns="http://www.w3.org/2000/svg" xmlns:xlink="http://www.w3.org/1999/xlink" version="1.1" id="Layer_1" x="0px" y="0px" viewBox="0 2 98 98" style="enable-background:new 0 2 98 98;" xml:space="preserve" width="512" height="512">
<style type="text/css">
	.st0{fill:url(#SVGID_1_);}
	.st1{fill:url(#SVGID_2_);}
</style>
<g>
	
		<linearGradient id="SVGID_1_" gradientUnits="userSpaceOnUse" x1="45.25" y1="95.25" x2="45.25" y2="11.4224" gradientTransform="matrix(1 0 0 -1 0 104)">
		<stop offset="0" style="stop-color:#00EFD1"/>
		<stop offset="1" style="stop-color:#00ACEA"/>
	</linearGradient>
	<path class="st0" d="M78.3,49c-1.7,0-3,1.3-3,3v34.8l-60.1-0.1l0.1-60.1h34.8c1.7,0,3-1.3,3-3s-1.3-3-3-3H12.3c-1.7,0-3,1.3-3,3   L9.2,89.7c0,1.7,1.3,3,3,3l66.1,0.1l0,0c0.8,0,1.6-0.3,2.1-0.9c0.6-0.6,0.9-1.3,0.9-2.1V52C81.3,50.3,80,49,78.3,49z"/>
	
		<linearGradient id="SVGID_2_" gradientUnits="userSpaceOnUse" x1="66.5" y1="95.25" x2="66.5" y2="11.4224" gradientTransform="matrix(1 0 0 -1 0 104)">
		<stop offset="0" style="stop-color:#00EFD1"/>
		<stop offset="1" style="stop-color:#00ACEA"/>
	</linearGradient>
	<path class="st1" d="M88.7,15.6c0-0.1-0.1-0.2-0.1-0.3s-0.1-0.2-0.1-0.3s-0.1-0.2-0.2-0.3c0-0.1-0.1-0.1-0.1-0.2   c-0.2-0.3-0.5-0.6-0.8-0.8c-0.1,0-0.1-0.1-0.2-0.1c-0.1-0.1-0.2-0.1-0.3-0.2c-0.1,0-0.2-0.1-0.3-0.1c-0.1,0-0.2-0.1-0.3-0.1   c-0.2,0-0.4-0.1-0.6-0.1H64.2c-1.7,0-3,1.3-3,3s1.3,3,3,3h14.4L45.1,52.7c-1.2,1.2-1.2,3.1,0,4.2c0.6,0.6,1.4,0.9,2.1,0.9   s1.5-0.3,2.1-0.9l33.5-33.5v14.5c0,1.7,1.3,3,3,3s3-1.3,3-3V16.2C88.8,16,88.8,15.8,88.7,15.6z"/>
</g>
</svg>
